<svg width="240" height="240" xmlns="http://www.w3.org/2000/svg">

 <g>
  <title>background</title>
  <rect fill="none" id="canvas_background" height="402" width="582" y="-1" x="-1"/>
 </g>
 <g>
  <title>Layer 1</title>
  <path stroke="null" id="svg_1" fill="#4d9be8" d="m25.055,103.34117l-25.055,-26.37195c30.722,-32.11773 73.03,-51.96922 119.749,-51.96922c46.978,0 89.492,20.06933 120.25,52.49843l-24.999,26.31563c-24.526,-25.34118 -58.115,-40.99624 -95.2,-40.99624c-36.853,0 -70.257,15.4606 -94.745,40.52335zm94.844,30.75116c18.293,0 34.882,7.62137 47.103,19.99601l24.997,-26.31563c-18.453,-19.45618 -43.963,-31.4982 -72.148,-31.4982c-28.031,0 -53.417,11.91025 -71.851,31.18047l25.055,26.37407c12.192,-12.22055 28.678,-19.73672 46.844,-19.73672z"/>
 </g>
</svg>